<svg width="107" height="36" viewBox="0 0 107 36" fill="none" xmlns="http://www.w3.org/2000/svg">
<path fill-rule="evenodd" clip-rule="evenodd" d="M17.7285 19.9813L20.7853 16.8706L23.9421 20.1026L20.8848 23.2138L17.7285 19.9813Z" fill="white"/>
<path fill-rule="evenodd" clip-rule="evenodd" d="M17.4706 19.482C17.2851 19.671 16.9847 19.6704 16.8002 19.4815L16.7731 19.4537C16.6009 19.2772 16.6126 19.0148 16.7433 18.8049C17.4937 17.598 18.7541 16.3324 19.7002 15.7907C19.9103 15.6704 20.1604 15.6536 20.3306 15.8279L20.3639 15.8621C20.5469 16.0495 20.5464 16.3524 20.3628 16.5392L17.4706 19.482Z" fill="white"/>
<path fill-rule="evenodd" clip-rule="evenodd" d="M21.374 23.4794C21.1883 23.6683 21.1879 23.9749 21.3724 24.1638L21.3996 24.1916C21.5717 24.368 21.829 24.357 22.0351 24.2243C23.2196 23.4621 24.4634 22.1791 24.997 21.2148C25.1154 21.0006 25.1328 20.7455 24.9627 20.5718L24.9288 20.5371C24.7464 20.3498 24.4496 20.3498 24.2662 20.536L21.374 23.4794Z" fill="white"/>
<path fill-rule="evenodd" clip-rule="evenodd" d="M12.2592 28.7691C12.2007 28.7391 12.1766 28.6704 12.1232 28.63C11.9726 28.4221 11.8932 28.1669 11.8998 27.905C11.9081 27.5853 12.0439 27.283 12.276 27.0684L18.4398 21.5093L18.9226 21.9886L19.3905 22.4826L13.9254 28.757C13.7147 28.9938 13.418 29.1318 13.1048 29.1392C12.848 29.1449 12.5985 29.0626 12.395 28.9082C12.356 28.8536 12.2888 28.8294 12.2592 28.7691Z" fill="white"/>
<path fill-rule="evenodd" clip-rule="evenodd" d="M17.5783 26.835L17.2246 27.2424V27.6728H16.893L16.4502 28.1258V29.3273H24.8564V28.1258L24.4134 27.6728H24.0818V27.2424L23.7282 26.835H17.5783Z" fill="white"/>
<path fill-rule="evenodd" clip-rule="evenodd" d="M15.8643 35.9086L16.7489 36C16.7489 36 17.8775 33.4572 20.7179 33.3354C22.5416 33.2572 24.1377 34.1911 26.0797 34.336C28.4132 34.5092 30.0057 34.0047 31.3424 32.7028C29.9288 33.4981 28.2651 33.1558 26.3379 32.7028C25.0859 32.4089 23.8029 32.285 22.8501 32.295C18.4316 32.3391 15.8643 35.9086 15.8643 35.9086Z" fill="white"/>
<path fill-rule="evenodd" clip-rule="evenodd" d="M29.1994 27.5169C28.7853 27.9399 28.2312 28.4973 27.6926 29.6816C27.1703 30.8312 27.1651 31.2947 26.6572 32.131C27.812 31.6885 28.6674 32.5419 31.5806 31.4374C32.9276 30.9277 33.8865 29.6271 34.3298 28.4973C33.2941 29.458 32.4555 29.9451 31.2208 30.131C30.0052 30.3147 29.2276 30.3965 28.2113 31.0092C28.8493 30.3147 29.0881 29.9273 29.4274 29.0086C29.7909 28.0233 29.7315 27.1757 30.1445 26.416C29.8477 26.8003 29.6125 27.0942 29.1994 27.5169Z" fill="white"/>
<path fill-rule="evenodd" clip-rule="evenodd" d="M30.6674 26.045C30.3656 27.6624 30.4542 29.0135 29.6465 30.0492C30.7228 29.1338 31.7705 29.1396 33.2138 28.4771C34.9374 27.6094 35.8466 26.0918 36.3228 23.8839C35.941 24.8582 34.962 25.78 33.8723 26.4765C32.9421 27.0718 31.9499 27.3632 31.261 28.233C31.6603 27.7416 31.7649 27.5039 31.8545 26.9574C32.1343 25.4598 31.6684 24.6111 31.8894 23.0483C31.6649 23.6944 30.8623 25.0041 30.6674 26.045Z" fill="white"/>
<path fill-rule="evenodd" clip-rule="evenodd" d="M32.3035 21.2957C32.1924 23.8305 33.2066 24.3502 32.4773 26.6809C33.1149 25.7424 33.8694 25.4604 34.8483 24.5785C36.0666 23.4762 37.0733 21.8085 36.9815 19.5571C36.7514 20.1876 36.0246 21.3949 35.2275 22.2526C34.4311 23.1093 33.7586 24.137 33.4142 24.8436C34.2101 22.0431 32.7848 20.978 32.6141 19.2979C32.57 19.9319 32.3425 20.8741 32.3035 21.2957Z" fill="white"/>
<path fill-rule="evenodd" clip-rule="evenodd" d="M32.7778 18.4151C32.5632 17.5931 32.6544 17.1044 32.4678 16.1827C32.7963 17.0057 34.7096 18.4639 34.5108 21.2713C34.6174 20.7563 35.0089 19.1972 35.5665 18.107C36.0053 17.2503 36.4497 16.3947 36.3441 15.127C36.8469 16.7978 36.8223 17.7606 36.6024 18.5977C36.3846 19.4345 35.8377 20.077 35.3678 20.7411C35.0592 21.1779 34.4036 22.0298 34.092 22.8235C34.1171 21.1049 33.0623 19.4923 32.7778 18.4151Z" fill="white"/>
<path fill-rule="evenodd" clip-rule="evenodd" d="M32.3374 14.9282C31.8765 14.2338 31.6706 13.3818 31.2041 12.4894C31.4917 12.8726 31.7418 13.0767 32.4573 13.6988C33.4419 14.554 34.1912 15.5162 34.5808 17.115C34.6094 16.1193 34.7294 15.523 34.9282 14.4122C35.1076 13.4123 35.061 12.269 34.6094 11.0039C35.4797 12.0826 36.2295 14.208 35.8057 15.6368C35.4694 16.9938 34.897 17.6804 34.7284 18.6384C34.1461 16.7224 32.938 15.8369 32.3374 14.9282Z" fill="white"/>
<path fill-rule="evenodd" clip-rule="evenodd" d="M32.6407 12.8929C32.2046 12.5339 31.1129 11.8362 30.5784 11.1937C30.0453 10.5513 29.7737 9.93916 29.3984 9.37274C30.1862 10.1151 30.6168 10.336 31.42 10.841C32.1492 11.2672 33.1338 11.8409 33.5326 12.7433C33.2938 12.0651 33.1739 11.1679 33.0939 10.412C32.9749 9.2866 32.5259 8.6022 32.1975 8.1875C33.2728 9.07253 33.9237 9.81942 34.2101 11.4121C34.4972 13.0057 34.1703 14.2088 34.2798 15.0666C33.7094 13.9086 33.077 13.2525 32.6407 12.8929Z" fill="white"/>
<path fill-rule="evenodd" clip-rule="evenodd" d="M32.8367 11.2284C32.3584 9.7591 31.8582 8.88347 30.8828 8.04466C29.6056 6.9461 28.25 6.43102 27.7139 6.16602C28.7579 6.92917 28.7041 7.59005 30.0956 8.93346C31.1826 9.98271 31.9479 10.0656 32.8367 11.2284Z" fill="white"/>
<path fill-rule="evenodd" clip-rule="evenodd" d="M21.1236 35.9086L20.239 36C20.239 36 19.1105 33.4572 16.2699 33.3354C14.4464 33.2572 12.8503 34.1911 10.9083 34.336C8.57475 34.5092 6.98227 34.0047 5.64551 32.7028C7.05916 33.4981 8.72289 33.1558 10.65 32.7028C11.9021 32.4089 13.1849 32.285 14.1378 32.295C18.5564 32.3391 21.1236 35.9086 21.1236 35.9086Z" fill="white"/>
<path fill-rule="evenodd" clip-rule="evenodd" d="M7.78777 27.5169C8.20187 27.9399 8.75583 28.4973 9.29458 29.6816C9.81679 30.8312 9.8219 31.2947 10.3299 32.131C9.17517 31.6885 8.31969 32.5419 5.40645 31.4374C4.05959 30.9277 3.10058 29.6271 2.65723 28.4973C3.69312 29.458 4.53155 29.9451 5.76623 30.131C6.98201 30.3147 7.75956 30.3965 8.77591 31.0092C8.13784 30.3147 7.89838 29.9273 7.5596 29.0086C7.19628 28.0233 7.25572 27.1757 6.84254 26.416C7.13933 26.8003 7.37459 27.0942 7.78777 27.5169Z" fill="white"/>
<path fill-rule="evenodd" clip-rule="evenodd" d="M6.31944 26.045C6.62135 27.6624 6.53266 29.0135 7.34038 30.0492C6.26407 29.1338 5.2165 29.1396 3.7732 28.4771C2.0495 27.6094 1.14022 26.0918 0.664062 23.8839C1.04601 24.8582 2.02496 25.78 3.11453 26.4765C4.04427 27.0718 5.03713 27.3632 5.72598 28.233C5.32619 27.7416 5.22214 27.5039 5.13239 26.9574C4.85252 25.4598 5.31845 24.6111 5.09762 23.0483C5.32199 23.6944 6.12473 25.0041 6.31944 26.045Z" fill="white"/>
<path fill-rule="evenodd" clip-rule="evenodd" d="M4.6838 21.2957C4.79506 23.8305 3.78068 24.3502 4.51007 26.6809C3.87253 25.7424 3.11808 25.4604 2.13912 24.5785C0.920847 23.4762 -0.08579 21.8085 0.00579405 19.5571C0.235935 20.1876 0.962834 21.3949 1.7598 22.2526C2.55624 23.1093 3.22869 24.137 3.57311 24.8436C2.77719 22.0431 4.20252 20.978 4.37322 19.2979C4.41731 19.9319 4.64483 20.8741 4.6838 21.2957Z" fill="white"/>
<path fill-rule="evenodd" clip-rule="evenodd" d="M4.21002 18.4151C4.42481 17.5931 4.33348 17.1044 4.52006 16.1827C4.19152 17.0057 2.27822 18.4639 2.47714 21.2713C2.37046 20.7563 1.97894 19.1972 1.4213 18.107C0.982532 17.2503 0.538258 16.3947 0.643225 15.127C0.140956 16.7978 0.165624 17.7606 0.38553 18.5977C0.603338 19.4345 1.15022 20.077 1.62021 20.7411C1.92868 21.1779 2.5842 22.0298 2.89582 22.8235C2.87076 21.1049 3.92555 19.4923 4.21002 18.4151Z" fill="white"/>
<path fill-rule="evenodd" clip-rule="evenodd" d="M4.65087 14.9282C5.11155 14.2338 5.31768 13.3818 5.78347 12.4894C5.49652 12.8726 5.24643 13.0767 4.53082 13.6988C3.54635 14.554 2.79702 15.5162 2.40746 17.115C2.37872 16.1193 2.2588 15.523 2.05989 14.4122C1.88052 13.4123 1.92723 12.269 2.37872 11.0039C1.50841 12.0826 0.758552 14.208 1.18249 15.6368C1.51865 16.9938 2.09124 17.6804 2.25985 18.6384C2.84202 16.7224 4.05007 15.8369 4.65087 14.9282Z" fill="white"/>
<path fill-rule="evenodd" clip-rule="evenodd" d="M4.34598 12.8929C4.78212 12.5339 5.87391 11.8362 6.40845 11.1937C6.94143 10.5513 7.21316 9.93916 7.58829 9.37274C6.80051 10.1151 6.37001 10.336 5.56688 10.841C4.83749 11.2672 3.85289 11.8409 3.45415 12.7433C3.69308 12.0651 3.81301 11.1679 3.89291 10.412C4.01179 9.2866 4.46079 8.6022 4.78933 8.1875C3.71407 9.07253 3.06314 9.81942 2.77658 11.4121C2.48963 13.0057 2.8166 14.2088 2.70691 15.0666C3.27741 13.9086 3.90984 13.2525 4.34598 12.8929Z" fill="white"/>
<path fill-rule="evenodd" clip-rule="evenodd" d="M4.15137 11.2284C4.62949 9.7591 5.12979 8.88347 6.10507 8.04466C7.38239 6.9461 8.73805 6.43102 9.27417 6.16602C8.23014 6.92917 8.28393 7.59005 6.89233 8.93346C5.80526 9.98271 5.04005 10.0656 4.15137 11.2284Z" fill="white"/>
<path fill-rule="evenodd" clip-rule="evenodd" d="M18.4941 0L20.0538 4.90384L18.4941 7.09438V0Z" fill="white"/>
<path fill-rule="evenodd" clip-rule="evenodd" d="M18.4943 0L16.9336 4.90384L18.4943 7.09438V0Z" fill="white"/>
<path fill-rule="evenodd" clip-rule="evenodd" d="M11.8994 4.9043H16.933L18.4937 7.09484L11.8994 4.9043Z" fill="white"/>
<path fill-rule="evenodd" clip-rule="evenodd" d="M11.8994 4.9043L15.9762 7.93056L18.4937 7.09484L11.8994 4.9043Z" fill="white"/>
<path fill-rule="evenodd" clip-rule="evenodd" d="M14.417 12.8453L15.9767 7.92995L18.4942 7.09424L14.417 12.8453Z" fill="white"/>
<path fill-rule="evenodd" clip-rule="evenodd" d="M14.417 12.8453L18.4942 9.80699V7.09424L14.417 12.8453Z" fill="white"/>
<path fill-rule="evenodd" clip-rule="evenodd" d="M22.5704 12.8453L18.4941 9.80699V7.09424L22.5704 12.8453Z" fill="white"/>
<path fill-rule="evenodd" clip-rule="evenodd" d="M22.5704 12.8453L21.0113 7.92995L18.4941 7.09424L22.5704 12.8453Z" fill="white"/>
<path fill-rule="evenodd" clip-rule="evenodd" d="M25.0879 4.9043L21.0113 7.93056L18.4941 7.09484L25.0879 4.9043Z" fill="white"/>
<path fill-rule="evenodd" clip-rule="evenodd" d="M25.0879 4.9043H20.0538L18.4941 7.09484L25.0879 4.9043Z" fill="white"/>
<path fill-rule="evenodd" clip-rule="evenodd" d="M44.9141 10.1885H49.2233L55.638 21.8946L61.7568 10.1885H65.4612L56.6863 26.4904H54.1188L44.9141 10.1885ZM67.0589 10.1885H80.7372C81.343 10.1885 81.8174 10.2213 82.1599 10.2816C82.5036 10.347 82.8266 10.4691 83.1296 10.6528C83.5841 10.9174 83.8909 11.276 84.0584 11.7278C84.2259 12.1799 84.3097 12.8646 84.3097 13.7808V16.7627C84.3097 17.3205 84.2886 17.7484 84.2457 18.0455C84.2013 18.3426 84.1174 18.632 83.9944 18.9127C83.7664 19.4389 83.4078 19.8053 82.9139 20.0179C82.42 20.2255 81.6944 20.3315 80.7372 20.3315H70.7623V26.4904H67.0589V10.1885ZM79.043 16.8849C79.605 16.8849 80.004 16.7904 80.2392 16.6042C80.4783 16.4166 80.5978 16.1108 80.5978 15.6916V14.9994C80.5978 14.5751 80.4783 14.2744 80.2392 14.0994C80.004 13.9193 79.605 13.8301 79.043 13.8301H70.7623V16.8849H79.043ZM94.2711 10.1885H97.8559L107 26.4904H102.834L100.976 22.9219H90.8512L88.9577 26.4904H85.2546L94.2711 10.1885ZM99.1556 19.4466L95.9413 13.3618L92.6964 19.4466H99.1556Z" fill="white"/>
</svg>
